<?xml version="1.0" encoding="utf-8" standalone="no"?>
<!DOCTYPE svg PUBLIC "-//W3C//DTD SVG 1.1//EN"
  "http://www.w3.org/Graphics/SVG/1.1/DTD/svg11.dtd">
<svg height="345.6pt" version="1.1" viewBox="0 0 460.8 345.6" width="460.8pt" xmlns="http://www.w3.org/2000/svg" xmlns:xlink="http://www.w3.org/1999/xlink">
 <metadata>
  <rdf:RDF xmlns:cc="http://creativecommons.org/ns#" xmlns:dc="http://purl.org/dc/elements/1.1/" xmlns:rdf="http://www.w3.org/1999/02/22-rdf-syntax-ns#">
   <cc:Work>
    <dc:type rdf:resource="http://purl.org/dc/dcmitype/StillImage"/>
    <dc:date>2021-11-01T13:56:13.910129</dc:date>
    <dc:format>image/svg+xml</dc:format>
    <dc:creator>
     <cc:Agent>
      <dc:title>Matplotlib v3.4.3, https://matplotlib.org/</dc:title>
     </cc:Agent>
    </dc:creator>
   </cc:Work>
  </rdf:RDF>
 </metadata>
 <defs>
  <style type="text/css">*{stroke-linecap:butt;stroke-linejoin:round;}</style>
 </defs>
 <g id="figure_1">
  <g id="patch_1">
   <path d="M 0 345.6 
L 460.8 345.6 
L 460.8 0 
L 0 0 
z
" style="fill:#ffffff;"/>
  </g>
  <g id="axes_1">
   <g id="patch_2">
    <path d="M 41.782054 314.408 
L 450 314.408 
L 450 41.472 
L 41.782054 41.472 
z
" style="fill:#ffffff;"/>
   </g>
   <g id="matplotlib.axis_1">
    <g id="xtick_1">
     <g id="line2d_1">
      <path clip-path="url(#p5c4275920e)" d="M 134.33812 314.408 
L 134.33812 41.472 
" style="fill:none;stroke:#b0b0b0;stroke-linecap:square;stroke-width:0.8;"/>
     </g>
     <g id="line2d_2">
      <defs>
       <path d="M 0 0 
L 0 3.5 
" id="mc255685cd5" style="stroke:#000000;stroke-width:0.8;"/>
      </defs>
      <g>
       <use style="stroke:#000000;stroke-width:0.8;" x="134.33812" xlink:href="#mc255685cd5" y="314.408"/>
      </g>
     </g>
     <g id="text_1">
      <!-- $\mathdefault{10^{-1}}$ -->
      <g transform="translate(122.58812 329.006438)scale(0.1 -0.1)">
       <defs>
        <path d="M 794 531 
L 1825 531 
L 1825 4091 
L 703 3866 
L 703 4441 
L 1819 4666 
L 2450 4666 
L 2450 531 
L 3481 531 
L 3481 0 
L 794 0 
L 794 531 
z
" id="DejaVuSans-31" transform="scale(0.015625)"/>
        <path d="M 2034 4250 
Q 1547 4250 1301 3770 
Q 1056 3291 1056 2328 
Q 1056 1369 1301 889 
Q 1547 409 2034 409 
Q 2525 409 2770 889 
Q 3016 1369 3016 2328 
Q 3016 3291 2770 3770 
Q 2525 4250 2034 4250 
z
M 2034 4750 
Q 2819 4750 3233 4129 
Q 3647 3509 3647 2328 
Q 3647 1150 3233 529 
Q 2819 -91 2034 -91 
Q 1250 -91 836 529 
Q 422 1150 422 2328 
Q 422 3509 836 4129 
Q 1250 4750 2034 4750 
z
" id="DejaVuSans-30" transform="scale(0.015625)"/>
        <path d="M 678 2272 
L 4684 2272 
L 4684 1741 
L 678 1741 
L 678 2272 
z
" id="DejaVuSans-2212" transform="scale(0.015625)"/>
       </defs>
       <use transform="translate(0 0.684375)" xlink:href="#DejaVuSans-31"/>
       <use transform="translate(63.623047 0.684375)" xlink:href="#DejaVuSans-30"/>
       <use transform="translate(128.203125 38.965625)scale(0.7)" xlink:href="#DejaVuSans-2212"/>
       <use transform="translate(186.855469 38.965625)scale(0.7)" xlink:href="#DejaVuSans-31"/>
      </g>
     </g>
    </g>
    <g id="xtick_2">
     <g id="line2d_3">
      <path clip-path="url(#p5c4275920e)" d="M 320.297571 314.408 
L 320.297571 41.472 
" style="fill:none;stroke:#b0b0b0;stroke-linecap:square;stroke-width:0.8;"/>
     </g>
     <g id="line2d_4">
      <g>
       <use style="stroke:#000000;stroke-width:0.8;" x="320.297571" xlink:href="#mc255685cd5" y="314.408"/>
      </g>
     </g>
     <g id="text_2">
      <!-- $\mathdefault{10^{0}}$ -->
      <g transform="translate(311.497571 329.006438)scale(0.1 -0.1)">
       <use transform="translate(0 0.765625)" xlink:href="#DejaVuSans-31"/>
       <use transform="translate(63.623047 0.765625)" xlink:href="#DejaVuSans-30"/>
       <use transform="translate(128.203125 39.046875)scale(0.7)" xlink:href="#DejaVuSans-30"/>
      </g>
     </g>
    </g>
    <g id="xtick_3">
     <g id="line2d_5">
      <defs>
       <path d="M 0 0 
L 0 2 
" id="mf6f0df341f" style="stroke:#000000;stroke-width:0.6;"/>
      </defs>
      <g>
       <use style="stroke:#000000;stroke-width:0.6;" x="60.337415" xlink:href="#mf6f0df341f" y="314.408"/>
      </g>
     </g>
    </g>
    <g id="xtick_4">
     <g id="line2d_6">
      <g>
       <use style="stroke:#000000;stroke-width:0.6;" x="78.358748" xlink:href="#mf6f0df341f" y="314.408"/>
      </g>
     </g>
    </g>
    <g id="xtick_5">
     <g id="line2d_7">
      <g>
       <use style="stroke:#000000;stroke-width:0.6;" x="93.083249" xlink:href="#mf6f0df341f" y="314.408"/>
      </g>
     </g>
    </g>
    <g id="xtick_6">
     <g id="line2d_8">
      <g>
       <use style="stroke:#000000;stroke-width:0.6;" x="105.532637" xlink:href="#mf6f0df341f" y="314.408"/>
      </g>
     </g>
    </g>
    <g id="xtick_7">
     <g id="line2d_9">
      <g>
       <use style="stroke:#000000;stroke-width:0.6;" x="116.316788" xlink:href="#mf6f0df341f" y="314.408"/>
      </g>
     </g>
    </g>
    <g id="xtick_8">
     <g id="line2d_10">
      <g>
       <use style="stroke:#000000;stroke-width:0.6;" x="125.829083" xlink:href="#mf6f0df341f" y="314.408"/>
      </g>
     </g>
    </g>
    <g id="xtick_9">
     <g id="line2d_11">
      <g>
       <use style="stroke:#000000;stroke-width:0.6;" x="190.317493" xlink:href="#mf6f0df341f" y="314.408"/>
      </g>
     </g>
    </g>
    <g id="xtick_10">
     <g id="line2d_12">
      <g>
       <use style="stroke:#000000;stroke-width:0.6;" x="223.063327" xlink:href="#mf6f0df341f" y="314.408"/>
      </g>
     </g>
    </g>
    <g id="xtick_11">
     <g id="line2d_13">
      <g>
       <use style="stroke:#000000;stroke-width:0.6;" x="246.296865" xlink:href="#mf6f0df341f" y="314.408"/>
      </g>
     </g>
    </g>
    <g id="xtick_12">
     <g id="line2d_14">
      <g>
       <use style="stroke:#000000;stroke-width:0.6;" x="264.318198" xlink:href="#mf6f0df341f" y="314.408"/>
      </g>
     </g>
    </g>
    <g id="xtick_13">
     <g id="line2d_15">
      <g>
       <use style="stroke:#000000;stroke-width:0.6;" x="279.042699" xlink:href="#mf6f0df341f" y="314.408"/>
      </g>
     </g>
    </g>
    <g id="xtick_14">
     <g id="line2d_16">
      <g>
       <use style="stroke:#000000;stroke-width:0.6;" x="291.492087" xlink:href="#mf6f0df341f" y="314.408"/>
      </g>
     </g>
    </g>
    <g id="xtick_15">
     <g id="line2d_17">
      <g>
       <use style="stroke:#000000;stroke-width:0.6;" x="302.276238" xlink:href="#mf6f0df341f" y="314.408"/>
      </g>
     </g>
    </g>
    <g id="xtick_16">
     <g id="line2d_18">
      <g>
       <use style="stroke:#000000;stroke-width:0.6;" x="311.788533" xlink:href="#mf6f0df341f" y="314.408"/>
      </g>
     </g>
    </g>
    <g id="xtick_17">
     <g id="line2d_19">
      <g>
       <use style="stroke:#000000;stroke-width:0.6;" x="376.276943" xlink:href="#mf6f0df341f" y="314.408"/>
      </g>
     </g>
    </g>
    <g id="xtick_18">
     <g id="line2d_20">
      <g>
       <use style="stroke:#000000;stroke-width:0.6;" x="409.022777" xlink:href="#mf6f0df341f" y="314.408"/>
      </g>
     </g>
    </g>
    <g id="xtick_19">
     <g id="line2d_21">
      <g>
       <use style="stroke:#000000;stroke-width:0.6;" x="432.256316" xlink:href="#mf6f0df341f" y="314.408"/>
      </g>
     </g>
    </g>
    <g id="text_3">
     <!-- wet radius [um] -->
     <g transform="translate(206.190246 342.684562)scale(0.1 -0.1)">
      <defs>
       <path d="M 269 3500 
L 844 3500 
L 1563 769 
L 2278 3500 
L 2956 3500 
L 3675 769 
L 4391 3500 
L 4966 3500 
L 4050 0 
L 3372 0 
L 2619 2869 
L 1863 0 
L 1184 0 
L 269 3500 
z
" id="DejaVuSans-77" transform="scale(0.015625)"/>
       <path d="M 3597 1894 
L 3597 1613 
L 953 1613 
Q 991 1019 1311 708 
Q 1631 397 2203 397 
Q 2534 397 2845 478 
Q 3156 559 3463 722 
L 3463 178 
Q 3153 47 2828 -22 
Q 2503 -91 2169 -91 
Q 1331 -91 842 396 
Q 353 884 353 1716 
Q 353 2575 817 3079 
Q 1281 3584 2069 3584 
Q 2775 3584 3186 3129 
Q 3597 2675 3597 1894 
z
M 3022 2063 
Q 3016 2534 2758 2815 
Q 2500 3097 2075 3097 
Q 1594 3097 1305 2825 
Q 1016 2553 972 2059 
L 3022 2063 
z
" id="DejaVuSans-65" transform="scale(0.015625)"/>
       <path d="M 1172 4494 
L 1172 3500 
L 2356 3500 
L 2356 3053 
L 1172 3053 
L 1172 1153 
Q 1172 725 1289 603 
Q 1406 481 1766 481 
L 2356 481 
L 2356 0 
L 1766 0 
Q 1100 0 847 248 
Q 594 497 594 1153 
L 594 3053 
L 172 3053 
L 172 3500 
L 594 3500 
L 594 4494 
L 1172 4494 
z
" id="DejaVuSans-74" transform="scale(0.015625)"/>
       <path id="DejaVuSans-20" transform="scale(0.015625)"/>
       <path d="M 2631 2963 
Q 2534 3019 2420 3045 
Q 2306 3072 2169 3072 
Q 1681 3072 1420 2755 
Q 1159 2438 1159 1844 
L 1159 0 
L 581 0 
L 581 3500 
L 1159 3500 
L 1159 2956 
Q 1341 3275 1631 3429 
Q 1922 3584 2338 3584 
Q 2397 3584 2469 3576 
Q 2541 3569 2628 3553 
L 2631 2963 
z
" id="DejaVuSans-72" transform="scale(0.015625)"/>
       <path d="M 2194 1759 
Q 1497 1759 1228 1600 
Q 959 1441 959 1056 
Q 959 750 1161 570 
Q 1363 391 1709 391 
Q 2188 391 2477 730 
Q 2766 1069 2766 1631 
L 2766 1759 
L 2194 1759 
z
M 3341 1997 
L 3341 0 
L 2766 0 
L 2766 531 
Q 2569 213 2275 61 
Q 1981 -91 1556 -91 
Q 1019 -91 701 211 
Q 384 513 384 1019 
Q 384 1609 779 1909 
Q 1175 2209 1959 2209 
L 2766 2209 
L 2766 2266 
Q 2766 2663 2505 2880 
Q 2244 3097 1772 3097 
Q 1472 3097 1187 3025 
Q 903 2953 641 2809 
L 641 3341 
Q 956 3463 1253 3523 
Q 1550 3584 1831 3584 
Q 2591 3584 2966 3190 
Q 3341 2797 3341 1997 
z
" id="DejaVuSans-61" transform="scale(0.015625)"/>
       <path d="M 2906 2969 
L 2906 4863 
L 3481 4863 
L 3481 0 
L 2906 0 
L 2906 525 
Q 2725 213 2448 61 
Q 2172 -91 1784 -91 
Q 1150 -91 751 415 
Q 353 922 353 1747 
Q 353 2572 751 3078 
Q 1150 3584 1784 3584 
Q 2172 3584 2448 3432 
Q 2725 3281 2906 2969 
z
M 947 1747 
Q 947 1113 1208 752 
Q 1469 391 1925 391 
Q 2381 391 2643 752 
Q 2906 1113 2906 1747 
Q 2906 2381 2643 2742 
Q 2381 3103 1925 3103 
Q 1469 3103 1208 2742 
Q 947 2381 947 1747 
z
" id="DejaVuSans-64" transform="scale(0.015625)"/>
       <path d="M 603 3500 
L 1178 3500 
L 1178 0 
L 603 0 
L 603 3500 
z
M 603 4863 
L 1178 4863 
L 1178 4134 
L 603 4134 
L 603 4863 
z
" id="DejaVuSans-69" transform="scale(0.015625)"/>
       <path d="M 544 1381 
L 544 3500 
L 1119 3500 
L 1119 1403 
Q 1119 906 1312 657 
Q 1506 409 1894 409 
Q 2359 409 2629 706 
Q 2900 1003 2900 1516 
L 2900 3500 
L 3475 3500 
L 3475 0 
L 2900 0 
L 2900 538 
Q 2691 219 2414 64 
Q 2138 -91 1772 -91 
Q 1169 -91 856 284 
Q 544 659 544 1381 
z
M 1991 3584 
L 1991 3584 
z
" id="DejaVuSans-75" transform="scale(0.015625)"/>
       <path d="M 2834 3397 
L 2834 2853 
Q 2591 2978 2328 3040 
Q 2066 3103 1784 3103 
Q 1356 3103 1142 2972 
Q 928 2841 928 2578 
Q 928 2378 1081 2264 
Q 1234 2150 1697 2047 
L 1894 2003 
Q 2506 1872 2764 1633 
Q 3022 1394 3022 966 
Q 3022 478 2636 193 
Q 2250 -91 1575 -91 
Q 1294 -91 989 -36 
Q 684 19 347 128 
L 347 722 
Q 666 556 975 473 
Q 1284 391 1588 391 
Q 1994 391 2212 530 
Q 2431 669 2431 922 
Q 2431 1156 2273 1281 
Q 2116 1406 1581 1522 
L 1381 1569 
Q 847 1681 609 1914 
Q 372 2147 372 2553 
Q 372 3047 722 3315 
Q 1072 3584 1716 3584 
Q 2034 3584 2315 3537 
Q 2597 3491 2834 3397 
z
" id="DejaVuSans-73" transform="scale(0.015625)"/>
       <path d="M 550 4863 
L 1875 4863 
L 1875 4416 
L 1125 4416 
L 1125 -397 
L 1875 -397 
L 1875 -844 
L 550 -844 
L 550 4863 
z
" id="DejaVuSans-5b" transform="scale(0.015625)"/>
       <path d="M 3328 2828 
Q 3544 3216 3844 3400 
Q 4144 3584 4550 3584 
Q 5097 3584 5394 3201 
Q 5691 2819 5691 2113 
L 5691 0 
L 5113 0 
L 5113 2094 
Q 5113 2597 4934 2840 
Q 4756 3084 4391 3084 
Q 3944 3084 3684 2787 
Q 3425 2491 3425 1978 
L 3425 0 
L 2847 0 
L 2847 2094 
Q 2847 2600 2669 2842 
Q 2491 3084 2119 3084 
Q 1678 3084 1418 2786 
Q 1159 2488 1159 1978 
L 1159 0 
L 581 0 
L 581 3500 
L 1159 3500 
L 1159 2956 
Q 1356 3278 1631 3431 
Q 1906 3584 2284 3584 
Q 2666 3584 2933 3390 
Q 3200 3197 3328 2828 
z
" id="DejaVuSans-6d" transform="scale(0.015625)"/>
       <path d="M 1947 4863 
L 1947 -844 
L 622 -844 
L 622 -397 
L 1369 -397 
L 1369 4416 
L 622 4416 
L 622 4863 
L 1947 4863 
z
" id="DejaVuSans-5d" transform="scale(0.015625)"/>
      </defs>
      <use xlink:href="#DejaVuSans-77"/>
      <use x="81.787109" xlink:href="#DejaVuSans-65"/>
      <use x="143.310547" xlink:href="#DejaVuSans-74"/>
      <use x="182.519531" xlink:href="#DejaVuSans-20"/>
      <use x="214.306641" xlink:href="#DejaVuSans-72"/>
      <use x="255.419922" xlink:href="#DejaVuSans-61"/>
      <use x="316.699219" xlink:href="#DejaVuSans-64"/>
      <use x="380.175781" xlink:href="#DejaVuSans-69"/>
      <use x="407.958984" xlink:href="#DejaVuSans-75"/>
      <use x="471.337891" xlink:href="#DejaVuSans-73"/>
      <use x="523.4375" xlink:href="#DejaVuSans-20"/>
      <use x="555.224609" xlink:href="#DejaVuSans-5b"/>
      <use x="594.238281" xlink:href="#DejaVuSans-75"/>
      <use x="657.617188" xlink:href="#DejaVuSans-6d"/>
      <use x="755.029297" xlink:href="#DejaVuSans-5d"/>
     </g>
    </g>
   </g>
   <g id="matplotlib.axis_2">
    <g id="ytick_1">
     <g id="line2d_22">
      <path clip-path="url(#p5c4275920e)" d="M 41.782054 269.027931 
L 450 269.027931 
" style="fill:none;stroke:#b0b0b0;stroke-linecap:square;stroke-width:0.8;"/>
     </g>
     <g id="line2d_23">
      <defs>
       <path d="M 0 0 
L -3.5 0 
" id="m713f5a1867" style="stroke:#000000;stroke-width:0.8;"/>
      </defs>
      <g>
       <use style="stroke:#000000;stroke-width:0.8;" x="41.782054" xlink:href="#m713f5a1867" y="269.027931"/>
      </g>
     </g>
     <g id="text_4">
      <!-- $\mathdefault{10^{-3}}$ -->
      <g transform="translate(11.282054 272.82715)scale(0.1 -0.1)">
       <defs>
        <path d="M 2597 2516 
Q 3050 2419 3304 2112 
Q 3559 1806 3559 1356 
Q 3559 666 3084 287 
Q 2609 -91 1734 -91 
Q 1441 -91 1130 -33 
Q 819 25 488 141 
L 488 750 
Q 750 597 1062 519 
Q 1375 441 1716 441 
Q 2309 441 2620 675 
Q 2931 909 2931 1356 
Q 2931 1769 2642 2001 
Q 2353 2234 1838 2234 
L 1294 2234 
L 1294 2753 
L 1863 2753 
Q 2328 2753 2575 2939 
Q 2822 3125 2822 3475 
Q 2822 3834 2567 4026 
Q 2313 4219 1838 4219 
Q 1578 4219 1281 4162 
Q 984 4106 628 3988 
L 628 4550 
Q 988 4650 1302 4700 
Q 1616 4750 1894 4750 
Q 2613 4750 3031 4423 
Q 3450 4097 3450 3541 
Q 3450 3153 3228 2886 
Q 3006 2619 2597 2516 
z
" id="DejaVuSans-33" transform="scale(0.015625)"/>
       </defs>
       <use transform="translate(0 0.765625)" xlink:href="#DejaVuSans-31"/>
       <use transform="translate(63.623047 0.765625)" xlink:href="#DejaVuSans-30"/>
       <use transform="translate(128.203125 39.046875)scale(0.7)" xlink:href="#DejaVuSans-2212"/>
       <use transform="translate(186.855469 39.046875)scale(0.7)" xlink:href="#DejaVuSans-33"/>
      </g>
     </g>
    </g>
    <g id="ytick_2">
     <g id="line2d_24">
      <path clip-path="url(#p5c4275920e)" d="M 41.782054 214.732321 
L 450 214.732321 
" style="fill:none;stroke:#b0b0b0;stroke-linecap:square;stroke-width:0.8;"/>
     </g>
     <g id="line2d_25">
      <g>
       <use style="stroke:#000000;stroke-width:0.8;" x="41.782054" xlink:href="#m713f5a1867" y="214.732321"/>
      </g>
     </g>
     <g id="text_5">
      <!-- $\mathdefault{10^{-1}}$ -->
      <g transform="translate(11.282054 218.53154)scale(0.1 -0.1)">
       <use transform="translate(0 0.684375)" xlink:href="#DejaVuSans-31"/>
       <use transform="translate(63.623047 0.684375)" xlink:href="#DejaVuSans-30"/>
       <use transform="translate(128.203125 38.965625)scale(0.7)" xlink:href="#DejaVuSans-2212"/>
       <use transform="translate(186.855469 38.965625)scale(0.7)" xlink:href="#DejaVuSans-31"/>
      </g>
     </g>
    </g>
    <g id="ytick_3">
     <g id="line2d_26">
      <path clip-path="url(#p5c4275920e)" d="M 41.782054 160.436712 
L 450 160.436712 
" style="fill:none;stroke:#b0b0b0;stroke-linecap:square;stroke-width:0.8;"/>
     </g>
     <g id="line2d_27">
      <g>
       <use style="stroke:#000000;stroke-width:0.8;" x="41.782054" xlink:href="#m713f5a1867" y="160.436712"/>
      </g>
     </g>
     <g id="text_6">
      <!-- $\mathdefault{10^{1}}$ -->
      <g transform="translate(17.182054 164.235931)scale(0.1 -0.1)">
       <use transform="translate(0 0.684375)" xlink:href="#DejaVuSans-31"/>
       <use transform="translate(63.623047 0.684375)" xlink:href="#DejaVuSans-30"/>
       <use transform="translate(128.203125 38.965625)scale(0.7)" xlink:href="#DejaVuSans-31"/>
      </g>
     </g>
    </g>
    <g id="ytick_4">
     <g id="line2d_28">
      <path clip-path="url(#p5c4275920e)" d="M 41.782054 106.141102 
L 450 106.141102 
" style="fill:none;stroke:#b0b0b0;stroke-linecap:square;stroke-width:0.8;"/>
     </g>
     <g id="line2d_29">
      <g>
       <use style="stroke:#000000;stroke-width:0.8;" x="41.782054" xlink:href="#m713f5a1867" y="106.141102"/>
      </g>
     </g>
     <g id="text_7">
      <!-- $\mathdefault{10^{3}}$ -->
      <g transform="translate(17.182054 109.940321)scale(0.1 -0.1)">
       <use transform="translate(0 0.765625)" xlink:href="#DejaVuSans-31"/>
       <use transform="translate(63.623047 0.765625)" xlink:href="#DejaVuSans-30"/>
       <use transform="translate(128.203125 39.046875)scale(0.7)" xlink:href="#DejaVuSans-33"/>
      </g>
     </g>
    </g>
    <g id="ytick_5">
     <g id="line2d_30">
      <path clip-path="url(#p5c4275920e)" d="M 41.782054 51.845492 
L 450 51.845492 
" style="fill:none;stroke:#b0b0b0;stroke-linecap:square;stroke-width:0.8;"/>
     </g>
     <g id="line2d_31">
      <g>
       <use style="stroke:#000000;stroke-width:0.8;" x="41.782054" xlink:href="#m713f5a1867" y="51.845492"/>
      </g>
     </g>
     <g id="text_8">
      <!-- $\mathdefault{10^{5}}$ -->
      <g transform="translate(17.182054 55.644711)scale(0.1 -0.1)">
       <defs>
        <path d="M 691 4666 
L 3169 4666 
L 3169 4134 
L 1269 4134 
L 1269 2991 
Q 1406 3038 1543 3061 
Q 1681 3084 1819 3084 
Q 2600 3084 3056 2656 
Q 3513 2228 3513 1497 
Q 3513 744 3044 326 
Q 2575 -91 1722 -91 
Q 1428 -91 1123 -41 
Q 819 9 494 109 
L 494 744 
Q 775 591 1075 516 
Q 1375 441 1709 441 
Q 2250 441 2565 725 
Q 2881 1009 2881 1497 
Q 2881 1984 2565 2268 
Q 2250 2553 1709 2553 
Q 1456 2553 1204 2497 
Q 953 2441 691 2322 
L 691 4666 
z
" id="DejaVuSans-35" transform="scale(0.015625)"/>
       </defs>
       <use transform="translate(0 0.684375)" xlink:href="#DejaVuSans-31"/>
       <use transform="translate(63.623047 0.684375)" xlink:href="#DejaVuSans-30"/>
       <use transform="translate(128.203125 38.965625)scale(0.7)" xlink:href="#DejaVuSans-35"/>
      </g>
     </g>
    </g>
    <g id="text_9">
     <!-- dN/dlog_10(r) [1/mg 1/um] -->
     <g transform="translate(4.924241 245.050156)rotate(-90)scale(0.1 -0.1)">
      <defs>
       <path d="M 628 4666 
L 1478 4666 
L 3547 763 
L 3547 4666 
L 4159 4666 
L 4159 0 
L 3309 0 
L 1241 3903 
L 1241 0 
L 628 0 
L 628 4666 
z
" id="DejaVuSans-4e" transform="scale(0.015625)"/>
       <path d="M 1625 4666 
L 2156 4666 
L 531 -594 
L 0 -594 
L 1625 4666 
z
" id="DejaVuSans-2f" transform="scale(0.015625)"/>
       <path d="M 603 4863 
L 1178 4863 
L 1178 0 
L 603 0 
L 603 4863 
z
" id="DejaVuSans-6c" transform="scale(0.015625)"/>
       <path d="M 1959 3097 
Q 1497 3097 1228 2736 
Q 959 2375 959 1747 
Q 959 1119 1226 758 
Q 1494 397 1959 397 
Q 2419 397 2687 759 
Q 2956 1122 2956 1747 
Q 2956 2369 2687 2733 
Q 2419 3097 1959 3097 
z
M 1959 3584 
Q 2709 3584 3137 3096 
Q 3566 2609 3566 1747 
Q 3566 888 3137 398 
Q 2709 -91 1959 -91 
Q 1206 -91 779 398 
Q 353 888 353 1747 
Q 353 2609 779 3096 
Q 1206 3584 1959 3584 
z
" id="DejaVuSans-6f" transform="scale(0.015625)"/>
       <path d="M 2906 1791 
Q 2906 2416 2648 2759 
Q 2391 3103 1925 3103 
Q 1463 3103 1205 2759 
Q 947 2416 947 1791 
Q 947 1169 1205 825 
Q 1463 481 1925 481 
Q 2391 481 2648 825 
Q 2906 1169 2906 1791 
z
M 3481 434 
Q 3481 -459 3084 -895 
Q 2688 -1331 1869 -1331 
Q 1566 -1331 1297 -1286 
Q 1028 -1241 775 -1147 
L 775 -588 
Q 1028 -725 1275 -790 
Q 1522 -856 1778 -856 
Q 2344 -856 2625 -561 
Q 2906 -266 2906 331 
L 2906 616 
Q 2728 306 2450 153 
Q 2172 0 1784 0 
Q 1141 0 747 490 
Q 353 981 353 1791 
Q 353 2603 747 3093 
Q 1141 3584 1784 3584 
Q 2172 3584 2450 3431 
Q 2728 3278 2906 2969 
L 2906 3500 
L 3481 3500 
L 3481 434 
z
" id="DejaVuSans-67" transform="scale(0.015625)"/>
       <path d="M 3263 -1063 
L 3263 -1509 
L -63 -1509 
L -63 -1063 
L 3263 -1063 
z
" id="DejaVuSans-5f" transform="scale(0.015625)"/>
       <path d="M 1984 4856 
Q 1566 4138 1362 3434 
Q 1159 2731 1159 2009 
Q 1159 1288 1364 580 
Q 1569 -128 1984 -844 
L 1484 -844 
Q 1016 -109 783 600 
Q 550 1309 550 2009 
Q 550 2706 781 3412 
Q 1013 4119 1484 4856 
L 1984 4856 
z
" id="DejaVuSans-28" transform="scale(0.015625)"/>
       <path d="M 513 4856 
L 1013 4856 
Q 1481 4119 1714 3412 
Q 1947 2706 1947 2009 
Q 1947 1309 1714 600 
Q 1481 -109 1013 -844 
L 513 -844 
Q 928 -128 1133 580 
Q 1338 1288 1338 2009 
Q 1338 2731 1133 3434 
Q 928 4138 513 4856 
z
" id="DejaVuSans-29" transform="scale(0.015625)"/>
      </defs>
      <use xlink:href="#DejaVuSans-64"/>
      <use x="63.476562" xlink:href="#DejaVuSans-4e"/>
      <use x="138.28125" xlink:href="#DejaVuSans-2f"/>
      <use x="171.972656" xlink:href="#DejaVuSans-64"/>
      <use x="235.449219" xlink:href="#DejaVuSans-6c"/>
      <use x="263.232422" xlink:href="#DejaVuSans-6f"/>
      <use x="324.414062" xlink:href="#DejaVuSans-67"/>
      <use x="387.890625" xlink:href="#DejaVuSans-5f"/>
      <use x="437.890625" xlink:href="#DejaVuSans-31"/>
      <use x="501.513672" xlink:href="#DejaVuSans-30"/>
      <use x="565.136719" xlink:href="#DejaVuSans-28"/>
      <use x="604.150391" xlink:href="#DejaVuSans-72"/>
      <use x="645.263672" xlink:href="#DejaVuSans-29"/>
      <use x="684.277344" xlink:href="#DejaVuSans-20"/>
      <use x="716.064453" xlink:href="#DejaVuSans-5b"/>
      <use x="755.078125" xlink:href="#DejaVuSans-31"/>
      <use x="818.701172" xlink:href="#DejaVuSans-2f"/>
      <use x="852.392578" xlink:href="#DejaVuSans-6d"/>
      <use x="949.804688" xlink:href="#DejaVuSans-67"/>
      <use x="1013.28125" xlink:href="#DejaVuSans-20"/>
      <use x="1045.068359" xlink:href="#DejaVuSans-31"/>
      <use x="1108.691406" xlink:href="#DejaVuSans-2f"/>
      <use x="1142.382812" xlink:href="#DejaVuSans-75"/>
      <use x="1205.761719" xlink:href="#DejaVuSans-6d"/>
      <use x="1303.173828" xlink:href="#DejaVuSans-5d"/>
     </g>
    </g>
   </g>
   <g id="line2d_32">
    <path clip-path="url(#p5c4275920e)" d="M -1 63.837964 
L 60.337415 63.837964 
L 60.337415 53.878182 
L 116.316788 53.878182 
L 116.316788 61.152944 
L 149.062621 61.152944 
L 149.062621 71.780028 
L 172.29616 71.780028 
L 172.29616 82.632782 
L 190.317493 82.632782 
L 190.317493 87.98527 
L 205.041994 87.98527 
L 205.041994 83.302716 
L 217.491382 83.302716 
L 217.491382 79.461334 
L 237.787828 79.545418 
L 237.787828 83.63252 
L 246.296865 83.63252 
L 246.296865 90.540367 
L 253.994226 90.540367 
L 253.994226 99.255585 
L 261.021366 99.255585 
L 261.021366 110.016019 
L 267.485709 110.016019 
L 267.485709 121.670429 
L 273.470755 121.670429 
L 273.470755 133.956657 
L 279.042699 133.956657 
L 279.042699 147.006364 
L 284.254905 147.006364 
L 284.254905 160.469589 
L 289.15102 160.469589 
L 289.15102 173.705685 
L 293.7672 173.705685 
L 293.7672 187.097242 
L 298.133732 187.097242 
L 298.133732 199.406073 
L 302.276238 199.406073 
L 302.276238 209.49222 
L 306.216588 209.49222 
L 306.216588 219.105299 
L 309.973599 219.105299 
L 309.973599 226.724666 
L 313.563575 226.724666 
L 313.563575 232.992892 
L 317.000739 232.992892 
L 317.000739 239.780828 
L 320.297571 239.780828 
L 320.297571 245.016834 
L 323.465081 245.016834 
L 323.465081 250.70666 
L 326.513034 250.70666 
L 326.513034 256.189795 
L 329.450127 256.189795 
L 329.450127 260.939209 
L 332.284143 260.939209 
L 332.284143 266.29141 
L 335.022072 266.29141 
L 335.022072 270.882039 
L 337.670216 270.882039 
L 337.670216 276.113675 
L 340.234278 276.113675 
L 340.234278 281.165314 
L 342.719433 281.165314 
L 342.719433 285.356845 
L 345.130393 285.356845 
L 345.130393 289.593311 
L 347.47146 289.593311 
L 347.47146 294.551465 
L 349.746573 294.551465 
L 349.746573 302.001818 
L 351.959346 302.001818 
L 351.959346 346.6 
L 351.959346 346.6 
" style="fill:none;stroke:#1f77b4;stroke-linecap:square;stroke-width:1.5;"/>
   </g>
   <g id="line2d_33">
    <path clip-path="url(#p5c4275920e)" d="M -1 69.035092 
L 60.337415 69.035092 
L 60.337415 57.945779 
L 116.316788 57.945779 
L 116.316788 61.814321 
L 149.062621 61.814321 
L 149.062621 67.663148 
L 172.29616 67.663148 
L 172.29616 73.944805 
L 190.317493 73.944805 
L 190.317493 79.44674 
L 205.041994 79.44674 
L 205.041994 85.055428 
L 217.491382 85.055428 
L 217.491382 89.906098 
L 228.275533 89.906098 
L 228.275533 118.021713 
L 237.787828 118.021713 
L 237.787828 346.6 
M 246.296865 346.6 
L 246.296865 134.555391 
L 253.994226 134.555391 
L 253.994226 346.6 
M 289.15102 346.6 
L 289.15102 134.631097 
L 293.7672 134.631097 
L 293.7672 346.6 
M 302.276238 346.6 
L 302.276238 134.706896 
L 306.216588 134.706896 
L 306.216588 346.6 
M 313.563575 346.6 
L 313.563575 134.782784 
L 317.000739 134.782784 
L 317.000739 346.6 
M 320.297571 346.6 
L 320.297571 134.858756 
L 326.513034 134.934808 
L 326.513034 135.010936 
L 332.284143 135.087134 
L 332.284143 135.163397 
L 337.670216 135.239721 
L 337.670216 135.316101 
L 340.234278 135.316101 
L 340.234278 127.258402 
L 342.719433 127.258402 
L 342.719433 127.411425 
L 345.130393 127.411425 
L 345.130393 127.564565 
L 347.47146 127.564565 
L 347.47146 122.975485 
L 349.746573 122.975485 
L 349.746573 127.947592 
L 351.959346 127.947592 
L 351.959346 120.004667 
L 354.113104 120.004667 
L 354.113104 123.664047 
L 356.210915 123.664047 
L 356.210915 120.538559 
L 358.25561 120.538559 
L 358.25561 118.248025 
L 360.249814 118.248025 
L 360.249814 118.622619 
L 362.195961 118.622619 
L 362.195961 116.878225 
L 364.096311 116.878225 
L 364.096311 115.527529 
L 365.952971 115.527529 
L 365.952971 116.01096 
L 367.767905 116.01096 
L 367.767905 114.923779 
L 369.542947 114.923779 
L 369.542947 114.037566 
L 371.279814 114.037566 
L 371.279814 112.173575 
L 372.980111 112.173575 
L 372.980111 112.586917 
L 374.645349 112.586917 
L 374.645349 111.794853 
L 376.276943 111.794853 
L 376.276943 110.835907 
L 377.876226 110.835907 
L 377.876226 108.764539 
L 379.444454 108.764539 
L 379.444454 107.936656 
L 380.982808 107.936656 
L 380.982808 105.163319 
L 382.492406 105.163319 
L 382.492406 102.740945 
L 383.974304 102.740945 
L 383.974304 100.777795 
L 385.4295 100.777795 
L 385.4295 98.136567 
L 386.858938 98.136567 
L 386.858938 95.601535 
L 388.263515 95.601535 
L 388.263515 93.936676 
L 389.644082 93.936676 
L 389.644082 92.070488 
L 391.001444 92.070488 
L 391.001444 91.823138 
L 392.33637 91.823138 
L 392.33637 90.384393 
L 393.649588 90.384393 
L 393.649588 91.171397 
L 394.941795 91.171397 
L 394.941795 91.973158 
L 396.21365 91.973158 
L 396.21365 92.834578 
L 397.465786 92.834578 
L 397.465786 95.389425 
L 398.698805 95.389425 
L 398.698805 97.931562 
L 399.913282 97.931562 
L 399.913282 101.545226 
L 401.109765 101.545226 
L 401.109765 104.55437 
L 402.288781 104.55437 
L 402.288781 109.268966 
L 403.450832 109.268966 
L 403.450832 114.32308 
L 404.5964 114.32308 
L 404.5964 118.650563 
L 405.725945 118.650563 
L 405.725945 124.695182 
L 406.83991 124.695182 
L 406.83991 130.457896 
L 407.938718 130.457896 
L 407.938718 137.15949 
L 409.022777 137.15949 
L 409.022777 143.45777 
L 410.092477 143.45777 
L 410.092477 150.147056 
L 411.148193 150.147056 
L 411.148193 157.699688 
L 412.190287 157.699688 
L 412.190287 164.676959 
L 413.219106 164.676959 
L 413.219106 172.440863 
L 414.234983 172.440863 
L 414.234983 178.932577 
L 415.23824 178.932577 
L 415.23824 187.018422 
L 416.229187 187.018422 
L 416.229187 194.717364 
L 417.208122 194.717364 
L 417.208122 200.7437 
L 418.175333 200.7437 
L 418.175333 208.095292 
L 419.131098 208.095292 
L 419.131098 214.742387 
L 420.075684 214.742387 
L 420.075684 219.334429 
L 421.009349 219.334429 
L 421.009349 225.168479 
L 421.932344 225.168479 
L 421.932344 229.634291 
L 422.844909 229.634291 
L 422.844909 234.540308 
L 423.747278 234.540308 
L 423.747278 237.470422 
L 424.639675 237.470422 
L 424.639675 242.020118 
L 425.52232 242.020118 
L 425.52232 245.467108 
L 426.395422 245.467108 
L 426.395422 248.868732 
L 427.259186 248.868732 
L 427.259186 253.072202 
L 428.11381 253.072202 
L 428.11381 256.195597 
L 428.959484 256.195597 
L 428.959484 259.329469 
L 429.796395 259.329469 
L 429.796395 262.480336 
L 430.624721 262.480336 
L 430.624721 265.652501 
L 431.444639 265.652501 
L 431.444639 269.747042 
L 431.444639 269.747042 
" style="fill:none;stroke:#ff7f0e;stroke-linecap:square;stroke-width:1.5;"/>
   </g>
   <g id="patch_3">
    <path d="M 41.782054 314.408 
L 41.782054 41.472 
" style="fill:none;stroke:#000000;stroke-linecap:square;stroke-linejoin:miter;stroke-width:0.8;"/>
   </g>
   <g id="patch_4">
    <path d="M 450 314.408 
L 450 41.472 
" style="fill:none;stroke:#000000;stroke-linecap:square;stroke-linejoin:miter;stroke-width:0.8;"/>
   </g>
   <g id="patch_5">
    <path d="M 41.782054 314.408 
L 450 314.408 
" style="fill:none;stroke:#000000;stroke-linecap:square;stroke-linejoin:miter;stroke-width:0.8;"/>
   </g>
   <g id="patch_6">
    <path d="M 41.782054 41.472 
L 450 41.472 
" style="fill:none;stroke:#000000;stroke-linecap:square;stroke-linejoin:miter;stroke-width:0.8;"/>
   </g>
   <g id="text_10">
    <!-- Wet radius size distribution -->
    <g transform="translate(164.173839 35.472)scale(0.12 -0.12)">
     <defs>
      <path d="M 213 4666 
L 850 4666 
L 1831 722 
L 2809 4666 
L 3519 4666 
L 4500 722 
L 5478 4666 
L 6119 4666 
L 4947 0 
L 4153 0 
L 3169 4050 
L 2175 0 
L 1381 0 
L 213 4666 
z
" id="DejaVuSans-57" transform="scale(0.015625)"/>
      <path d="M 353 3500 
L 3084 3500 
L 3084 2975 
L 922 459 
L 3084 459 
L 3084 0 
L 275 0 
L 275 525 
L 2438 3041 
L 353 3041 
L 353 3500 
z
" id="DejaVuSans-7a" transform="scale(0.015625)"/>
      <path d="M 3116 1747 
Q 3116 2381 2855 2742 
Q 2594 3103 2138 3103 
Q 1681 3103 1420 2742 
Q 1159 2381 1159 1747 
Q 1159 1113 1420 752 
Q 1681 391 2138 391 
Q 2594 391 2855 752 
Q 3116 1113 3116 1747 
z
M 1159 2969 
Q 1341 3281 1617 3432 
Q 1894 3584 2278 3584 
Q 2916 3584 3314 3078 
Q 3713 2572 3713 1747 
Q 3713 922 3314 415 
Q 2916 -91 2278 -91 
Q 1894 -91 1617 61 
Q 1341 213 1159 525 
L 1159 0 
L 581 0 
L 581 4863 
L 1159 4863 
L 1159 2969 
z
" id="DejaVuSans-62" transform="scale(0.015625)"/>
      <path d="M 3513 2113 
L 3513 0 
L 2938 0 
L 2938 2094 
Q 2938 2591 2744 2837 
Q 2550 3084 2163 3084 
Q 1697 3084 1428 2787 
Q 1159 2491 1159 1978 
L 1159 0 
L 581 0 
L 581 3500 
L 1159 3500 
L 1159 2956 
Q 1366 3272 1645 3428 
Q 1925 3584 2291 3584 
Q 2894 3584 3203 3211 
Q 3513 2838 3513 2113 
z
" id="DejaVuSans-6e" transform="scale(0.015625)"/>
     </defs>
     <use xlink:href="#DejaVuSans-57"/>
     <use x="93.001953" xlink:href="#DejaVuSans-65"/>
     <use x="154.525391" xlink:href="#DejaVuSans-74"/>
     <use x="193.734375" xlink:href="#DejaVuSans-20"/>
     <use x="225.521484" xlink:href="#DejaVuSans-72"/>
     <use x="266.634766" xlink:href="#DejaVuSans-61"/>
     <use x="327.914062" xlink:href="#DejaVuSans-64"/>
     <use x="391.390625" xlink:href="#DejaVuSans-69"/>
     <use x="419.173828" xlink:href="#DejaVuSans-75"/>
     <use x="482.552734" xlink:href="#DejaVuSans-73"/>
     <use x="534.652344" xlink:href="#DejaVuSans-20"/>
     <use x="566.439453" xlink:href="#DejaVuSans-73"/>
     <use x="618.539062" xlink:href="#DejaVuSans-69"/>
     <use x="646.322266" xlink:href="#DejaVuSans-7a"/>
     <use x="698.8125" xlink:href="#DejaVuSans-65"/>
     <use x="760.335938" xlink:href="#DejaVuSans-20"/>
     <use x="792.123047" xlink:href="#DejaVuSans-64"/>
     <use x="855.599609" xlink:href="#DejaVuSans-69"/>
     <use x="883.382812" xlink:href="#DejaVuSans-73"/>
     <use x="935.482422" xlink:href="#DejaVuSans-74"/>
     <use x="974.691406" xlink:href="#DejaVuSans-72"/>
     <use x="1015.804688" xlink:href="#DejaVuSans-69"/>
     <use x="1043.587891" xlink:href="#DejaVuSans-62"/>
     <use x="1107.064453" xlink:href="#DejaVuSans-75"/>
     <use x="1170.443359" xlink:href="#DejaVuSans-74"/>
     <use x="1209.652344" xlink:href="#DejaVuSans-69"/>
     <use x="1237.435547" xlink:href="#DejaVuSans-6f"/>
     <use x="1298.617188" xlink:href="#DejaVuSans-6e"/>
    </g>
   </g>
   <g id="legend_1">
    <g id="patch_7">
     <path d="M 392.160937 78.82825 
L 443 78.82825 
Q 445 78.82825 445 76.82825 
L 445 48.472 
Q 445 46.472 443 46.472 
L 392.160937 46.472 
Q 390.160937 46.472 390.160937 48.472 
L 390.160937 76.82825 
Q 390.160937 78.82825 392.160937 78.82825 
z
" style="fill:#ffffff;opacity:0.8;stroke:#cccccc;stroke-linejoin:miter;"/>
    </g>
    <g id="line2d_34">
     <path d="M 394.160937 54.570437 
L 414.160937 54.570437 
" style="fill:none;stroke:#1f77b4;stroke-linecap:square;stroke-width:1.5;"/>
    </g>
    <g id="line2d_35"/>
    <g id="text_11">
     <!-- init -->
     <g transform="translate(422.160937 58.070437)scale(0.1 -0.1)">
      <use xlink:href="#DejaVuSans-69"/>
      <use x="27.783203" xlink:href="#DejaVuSans-6e"/>
      <use x="91.162109" xlink:href="#DejaVuSans-69"/>
      <use x="118.945312" xlink:href="#DejaVuSans-74"/>
     </g>
    </g>
    <g id="line2d_36">
     <path d="M 394.160937 69.248562 
L 414.160937 69.248562 
" style="fill:none;stroke:#ff7f0e;stroke-linecap:square;stroke-width:1.5;"/>
    </g>
    <g id="line2d_37"/>
    <g id="text_12">
     <!-- end -->
     <g transform="translate(422.160937 72.748562)scale(0.1 -0.1)">
      <use xlink:href="#DejaVuSans-65"/>
      <use x="61.523438" xlink:href="#DejaVuSans-6e"/>
      <use x="124.902344" xlink:href="#DejaVuSans-64"/>
     </g>
    </g>
   </g>
  </g>
 </g>
 <defs>
  <clipPath id="p5c4275920e">
   <rect height="272.936" width="408.217946" x="41.782054" y="41.472"/>
  </clipPath>
 </defs>
</svg>
